<?xml version="1.0" standalone="no"?>
<!-- Generator: Adobe Fireworks 10, Export SVG Extension by Aaron Beall (http://fireworks.abeall.com) . Version: 0.6.1  -->
<!DOCTYPE svg PUBLIC "-//W3C//DTD SVG 1.1//EN" "http://www.w3.org/Graphics/SVG/1.1/DTD/svg11.dtd">
<svg id="Untitled-Page%201" viewBox="0 0 210 48" style="background-color:#ffffff00" version="1.1"
	xmlns="http://www.w3.org/2000/svg" xmlns:xlink="http://www.w3.org/1999/xlink" xml:space="preserve"
	x="0px" y="0px" width="210px" height="48px"
>
	<g id="Layer%201">
		<path d="M 42.1069 33.2902 C 51.5977 33.2902 62.4771 31.8956 72.1991 28.8742 C 70.3473 30.966 66.8753 34.4529 66.4124 36.7771 C 66.1807 37.7067 65.7178 39.3338 65.2548 40.4957 C 62.94 40.9606 58.3105 41.1931 57.8477 41.1931 C 57.1531 41.1931 56.2273 41.1931 52.5233 40.9606 C 41.4124 39.7982 38.6347 37.9389 29.144 37.9389 C 28.4496 37.9389 20.5793 38.6364 20.1163 38.6364 C 18.7273 38.6364 13.6349 32.8255 11.3199 31.4309 C 8.5422 29.5714 2.7552 26.7822 -0.0225 25.62 C 12.4774 29.3391 29.3756 33.2902 42.1069 33.2902 ZM 31.9216 19.1119 C 30.5329 22.1337 30.7644 23.063 30.7644 25.3873 C 30.7644 26.085 30.9959 28.1765 31.2273 29.5714 C 25.2088 29.3391 19.6532 27.9445 13.6349 27.0146 L 13.6349 23.993 C 14.0978 22.366 14.3293 20.7389 15.0236 19.1119 L 31.9216 19.1119 ZM 65.7178 16.7873 C 65.0235 18.6469 64.329 21.9011 64.329 23.7605 C 64.329 24.4579 64.5603 26.5497 64.792 27.7118 C 60.3938 28.6414 55.9956 29.3391 50.44 29.8038 C 49.9773 27.7118 49.5142 23.528 49.5142 23.063 C 49.5142 22.366 49.9773 18.8794 50.44 16.7873 L 65.7178 16.7873 ZM 37.2457 11.4413 C 36.0884 13.9981 36.32 14.6954 36.32 17.02 C 36.32 18.8794 36.0884 20.274 37.2457 23.063 L 32.3847 23.063 L 32.3847 21.9011 C 32.8477 20.7389 33.3106 19.3442 33.7737 17.7171 L 21.2739 17.7171 L 21.2739 15.1604 C 21.5053 13.9981 21.9682 12.6034 22.1997 11.4413 L 37.2457 11.4413 ZM 63.403 8.6521 C 62.2458 10.5115 62.2458 13.0684 62.4771 15.3929 L 53.8674 15.3929 C 53.1349 13.0264 53.5131 10.8471 54.1437 8.6521 L 63.403 8.6521 ZM 32.1533 7.49 C 32.8477 7.7223 33.7737 7.49 34.4681 7.49 C 33.7737 7.9547 32.8477 8.8846 31.9216 9.1171 C 30.5329 9.3494 28.2182 9.582 27.5236 9.582 L 26.5976 9.582 L 26.5976 7.2575 C 27.2921 7.2575 28.2182 7.025 28.9125 7.025 C 29.3756 7.025 30.9959 7.49 32.1533 7.49 ZM 62.94 4.7006 C 63.6344 4.9333 65.0235 4.9333 65.9493 4.9333 C 65.2548 5.3979 64.329 6.5602 63.6344 6.5602 C 61.7828 7.025 59.6993 6.7925 57.8477 7.2575 L 57.8477 4.4683 C 58.542 4.4683 59.6993 4.236 60.1624 4.236 C 60.8568 4.236 61.7828 4.4683 62.94 4.7006 Z" fill="#373e44"/>
		<path d="M 52.9864 47.9339 C 43.0329 47.9339 33.3106 44.2148 19.1903 44.2148 C 13.6349 44.2148 13.1718 43.9826 6.2275 45.3772 C 13.6349 40.9606 21.5053 39.566 28.9125 39.566 C 40.0236 39.566 45.1161 42.8199 57.6162 42.8199 C 63.8661 42.8199 73.5881 41.1931 78.6808 38.8689 C 70.8105 45.3772 61.0881 47.9339 52.9864 47.9339 ZM 49.7457 14.6954 C 48.8198 17.2523 48.1252 20.274 48.1252 22.8308 C 48.1252 23.528 48.5883 27.4796 49.2828 29.8038 C 38.8662 30.501 44.6531 29.8038 32.6162 29.8038 C 32.3847 29.3391 32.1533 28.6414 32.1533 28.1765 L 32.1533 24.4579 L 39.0976 24.4579 C 38.4032 22.366 37.7087 19.5765 37.7087 19.1119 L 37.7087 14.6954 L 49.7457 14.6954 ZM 53.6807 6.0952 C 52.9864 8.8846 51.829 12.3711 52.755 15.6252 L 50.9031 15.6252 C 51.1346 15.1604 51.366 14.4631 51.5977 13.5333 L 38.1716 13.5333 L 38.1716 12.6034 C 38.4032 12.1386 38.6347 11.4413 39.0976 10.7441 L 39.0976 10.0468 L 34.931 10.0468 C 35.1627 8.8846 35.6256 7.49 36.0884 6.0952 L 53.6807 6.0952 ZM 52.0606 3.5385 C 51.5977 3.771 50.9031 4.0033 50.44 4.0033 C 47.6623 4.4683 44.8846 3.771 42.1069 4.7006 L 42.1069 -0.1805 L 48.5883 -0.1805 C 50.6716 0.517 52.292 0.9817 55.9956 0.517 C 54.8383 1.4466 53.4494 2.8414 52.0606 3.5385 Z" fill="#507097"/>
		<path d="M 99.1187 45.2471 L 99.1187 41.5085 L 97.4025 41.5085 L 97.4025 42.1404 L 98.3058 42.2211 L 98.3058 44.6591 C 97.8603 44.7626 97.3326 44.8537 96.7383 44.8537 C 95.6492 44.8537 94.7893 44.1189 94.7893 42.7039 L 94.7893 40.61 C 94.7893 39.1851 95.6492 38.4597 96.7383 38.4597 C 97.5039 38.4597 98.1926 38.599 98.799 38.7811 L 98.96 38.0457 C 98.1469 37.8056 97.5283 37.6772 96.7259 37.6772 C 95.1564 37.6772 93.9417 38.7355 93.9417 40.5415 L 93.9417 42.7722 C 93.9417 44.5784 95.1564 45.6365 96.7259 45.6365 C 97.5283 45.6365 98.3865 45.4753 99.1187 45.2471 Z" fill="#515961"/>
		<path d="M 103.2757 39.6096 C 103.0345 39.5538 102.7595 39.5289 102.5536 39.5289 C 101.3282 39.5289 100.3771 40.3802 100.3771 41.7036 L 100.3771 45.5457 L 101.2127 45.5457 L 101.2127 41.7036 C 101.2127 40.8417 101.7863 40.3114 102.5662 40.3114 C 102.7247 40.3114 102.9436 40.3347 103.1144 40.3678 L 103.2757 39.6096 Z" fill="#515961"/>
		<path d="M 108.6345 43.487 L 108.6345 39.6327 L 107.799 39.6327 L 107.799 43.487 C 107.799 44.3134 107.2154 44.8661 106.4461 44.8661 C 105.6557 44.8661 105.0828 44.3134 105.0828 43.487 L 105.0828 39.6327 L 104.2474 39.6327 L 104.2474 43.487 C 104.2474 44.7518 105.2207 45.6492 106.4461 45.6492 C 107.6487 45.6492 108.6345 44.7518 108.6345 43.487 Z" fill="#515961"/>
		<path d="M 113.3888 43.4182 C 113.3888 44.3605 112.8048 44.8537 112.0361 44.8537 C 111.5447 44.8537 110.9832 44.6255 110.6723 44.4521 L 110.6723 41.7155 C 110.6723 40.8875 111.2457 40.3011 112.0361 40.3011 C 112.7927 40.3011 113.3888 40.8875 113.3888 41.7155 L 113.3888 43.4182 ZM 114.2242 43.4182 L 114.2242 41.7155 C 114.2242 40.4488 113.2385 39.5186 112.0361 39.5186 C 110.8231 39.5186 109.8369 40.4488 109.8369 41.7155 L 109.8369 47.6163 L 110.6723 47.6163 L 110.6723 45.2682 C 110.9591 45.4189 111.4519 45.6365 112.0361 45.6365 C 113.2628 45.6365 114.2242 44.8082 114.2242 43.4182 Z" fill="#515961"/>
		<path d="M 118.9993 43.1987 C 118.9993 44.3833 118.3457 44.8661 117.5103 44.8661 C 116.6851 44.8661 116.0332 44.3833 116.0332 43.1987 L 116.0332 41.9791 C 116.0332 40.7943 116.6973 40.3114 117.5103 40.3114 C 118.3579 40.3114 118.9993 40.7943 118.9993 41.9791 L 118.9993 43.1987 ZM 119.8471 43.232 L 119.8471 41.9436 C 119.8471 40.4277 118.863 39.5289 117.5103 39.5289 C 116.1819 39.5289 115.1959 40.4382 115.1959 41.9436 L 115.1959 43.232 C 115.1959 44.7518 116.1819 45.6492 117.5103 45.6492 C 118.863 45.6492 119.8471 44.7518 119.8471 43.232 Z" fill="#515961"/>
		<path d="M 124.7029 40.0134 C 124.7029 40.7715 124.2549 41.3015 123.4651 41.3015 L 121.9986 41.3015 L 121.9986 38.7583 L 123.4651 38.7583 C 124.2549 38.7583 124.7029 39.2531 124.7029 40.0134 ZM 125.86 45.5457 L 124.2447 42.1404 C 125.1832 41.8298 125.7669 40.9888 125.7669 40.0134 C 125.7669 38.7708 124.8408 37.7807 123.4651 37.7807 L 120.9343 37.7807 L 120.9343 45.5457 L 121.9986 45.5457 L 121.9986 42.2319 L 123.2012 42.2319 L 124.7029 45.5457 L 125.86 45.5457 Z" fill="#3967a9"/>
		<path d="M 130.0392 43.1513 C 130.0392 44.2343 129.4553 44.6816 128.7105 44.6816 C 127.9555 44.6816 127.3824 44.2343 127.3824 43.1513 L 127.3824 41.9686 C 127.3824 40.8875 127.9658 40.4382 128.7105 40.4382 C 129.4677 40.4382 130.0392 40.8875 130.0392 41.9686 L 130.0392 43.1513 ZM 131.1054 43.1868 L 131.1054 41.9333 C 131.1054 40.403 130.0862 39.4728 128.7105 39.4728 C 127.3265 39.4728 126.3176 40.403 126.3176 41.9333 L 126.3176 43.1868 C 126.3176 44.7171 127.3265 45.6492 128.7105 45.6492 C 130.0862 45.6492 131.1054 44.7274 131.1054 43.1868 Z" fill="#3967a9"/>
		<path d="M 139.7748 45.5457 L 139.7748 41.6681 C 139.7748 40.3802 138.8028 39.4728 137.6007 39.4728 C 136.9571 39.4728 136.3627 39.7478 135.9609 40.4382 C 135.5588 39.7478 134.9541 39.4728 134.2897 39.4728 C 133.0976 39.4728 132.1367 40.3802 132.1367 41.6681 L 132.1367 45.5457 L 133.2012 45.5457 L 133.2012 41.7719 C 133.2012 40.9102 133.6713 40.4382 134.3003 40.4382 C 134.9417 40.4382 135.4225 40.9208 135.4225 41.7719 L 135.4225 45.5457 L 136.4889 45.5457 L 136.4889 41.7719 C 136.4889 40.9102 136.9819 40.4382 137.6109 40.4382 C 138.2523 40.4382 138.7105 40.9208 138.7105 41.7719 L 138.7105 45.5457 L 139.7748 45.5457 Z" fill="#3967a9"/>
		<path d="M 144.2776 41.9791 L 141.872 41.9791 L 141.872 41.6808 C 141.872 40.9433 142.3755 40.4382 143.0746 40.4382 C 143.7846 40.4382 144.2776 40.9433 144.2776 41.6808 L 144.2776 41.9791 ZM 145.3418 42.8773 L 145.3418 41.6808 C 145.3418 40.3802 144.3224 39.4728 143.0746 39.4728 C 141.8374 39.4728 140.8058 40.3802 140.8058 41.6808 L 140.8058 43.3932 C 140.8058 44.7399 141.8026 45.6492 143.1424 45.6492 C 143.7846 45.6492 144.4711 45.5102 145.0218 45.3382 L 144.8162 44.4063 C 144.1864 44.5662 143.5679 44.6816 143.1424 44.6816 C 142.3857 44.6816 141.872 44.1763 141.872 43.3932 L 141.872 42.8773 L 145.3418 42.8773 Z" fill="#3967a9"/>
		<path d="M 150.8533 43.4287 L 150.8533 39.5744 L 149.7866 39.5744 L 149.7866 43.4287 C 149.7866 44.1763 149.2726 44.6816 148.584 44.6816 C 147.8746 44.6816 147.3815 44.1763 147.3815 43.4287 L 147.3815 39.5744 L 146.3154 39.5744 L 146.3154 43.4287 C 146.3154 44.7274 147.336 45.6492 148.584 45.6492 C 149.832 45.6492 150.8533 44.7274 150.8533 43.4287 Z" fill="#3967a9"/>
		<path d="M 159.5802 45.5457 L 158.7324 37.7807 L 157.5526 37.7807 L 155.9711 42.7039 L 155.7666 43.5553 L 155.5599 42.7039 L 153.9902 37.7807 L 152.7999 37.7807 L 151.9402 45.5457 L 152.753 45.5457 L 153.3841 39.5414 L 153.4519 38.6898 L 153.6702 39.5414 L 155.2155 44.3381 L 156.3049 44.3381 L 157.8513 39.5414 L 158.0578 38.6898 L 158.126 39.5414 L 158.7448 45.5457 L 159.5802 45.5457 Z" fill="#515961"/>
		<path d="M 165.1119 43.487 L 165.1119 39.6327 L 164.2751 39.6327 L 164.2751 43.487 C 164.2751 44.3134 163.6909 44.8661 162.9238 44.8661 C 162.134 44.8661 161.5603 44.3134 161.5603 43.487 L 161.5603 39.6327 L 160.7249 39.6327 L 160.7249 43.487 C 160.7249 44.7518 161.6968 45.6492 162.9238 45.6492 C 164.1267 45.6492 165.1119 44.7518 165.1119 43.487 Z" fill="#515961"/>
		<path d="M 167.3216 45.5457 L 167.3216 37.2626 L 166.4859 37.4119 L 166.4859 45.5457 L 167.3216 45.5457 Z" fill="#515961"/>
		<path d="M 171.4118 40.3114 L 171.4118 39.6221 L 170.1738 39.6221 L 170.1738 37.7 L 169.3368 37.8967 L 169.3368 39.6221 L 168.3527 39.6221 L 168.524 40.3114 L 169.3368 40.3114 L 169.3368 45.5457 L 170.1738 45.5457 L 170.1738 40.3114 L 171.4118 40.3114 Z" fill="#515961"/>
		<path d="M 173.345 45.5457 L 173.345 39.6221 L 172.5093 39.6221 L 172.5093 45.5457 L 173.345 45.5457 ZM 173.5158 38.2072 C 173.5158 37.872 173.2419 37.6192 172.9216 37.6192 C 172.6002 37.6192 172.3258 37.872 172.3258 38.2072 C 172.3258 38.5405 172.6002 38.8057 172.9216 38.8057 C 173.2419 38.8057 173.5158 38.5405 173.5158 38.2072 Z" fill="#515961"/>
		<path d="M 178.2685 43.9585 C 178.2685 42.5546 177.2269 42.3826 176.2406 42.0247 C 175.8186 41.8756 175.4179 41.6808 175.4179 41.14 C 175.4179 40.7487 175.657 40.3114 176.47 40.3114 C 176.8826 40.3114 177.4101 40.4149 177.8683 40.5415 L 178.0397 39.7936 C 177.5591 39.6327 176.9279 39.5289 176.47 39.5289 C 175.3027 39.5289 174.5682 40.2206 174.5682 41.1508 C 174.5682 43.313 177.4328 42.4969 177.4328 43.9801 C 177.4328 44.4521 176.9857 44.8661 176.1726 44.8661 C 175.6343 44.8661 175.1186 44.7399 174.6486 44.6136 L 174.4875 45.3734 C 174.9249 45.5102 175.5086 45.6492 176.1726 45.6492 C 177.6392 45.6492 178.2685 44.7746 178.2685 43.9585 Z" fill="#515961"/>
		<path d="M 182.7937 42.0824 L 180.0794 42.0824 L 180.0794 41.6911 C 180.0794 40.8625 180.663 40.3114 181.4404 40.3114 C 182.2327 40.3114 182.7937 40.8625 182.7937 41.6911 L 182.7937 42.0824 ZM 183.6294 42.8183 L 183.6294 41.6911 C 183.6294 40.4149 182.6558 39.5289 181.4404 39.5289 C 180.2278 39.5289 179.2421 40.4149 179.2421 41.6911 L 179.2421 43.4518 C 179.2421 44.7626 180.2048 45.6492 181.4758 45.6492 C 182.1528 45.6492 182.8288 45.5102 183.2848 45.3734 L 183.1259 44.6136 C 182.5986 44.7518 181.9461 44.8661 181.4758 44.8661 C 180.663 44.8661 180.0794 44.3134 180.0794 43.4518 L 180.0794 42.8183 L 183.6294 42.8183 Z" fill="#515961"/>
		<path d="M 187.6125 39.6096 C 187.3734 39.5538 187.0974 39.5289 186.8907 39.5289 C 185.6653 39.5289 184.7147 40.3802 184.7147 41.7036 L 184.7147 45.5457 L 185.552 45.5457 L 185.552 41.7036 C 185.552 40.8417 186.1238 40.3114 186.9034 40.3114 C 187.0639 40.3114 187.2809 40.3347 187.4538 40.3678 L 187.6125 39.6096 Z" fill="#515961"/>
		<path d="M 193.0643 39.6221 L 192.2168 39.6221 L 190.6474 44.7274 L 189.0893 39.6221 L 188.2423 39.6221 L 190.0858 45.5457 L 191.1976 45.5457 L 193.0643 39.6221 Z" fill="#515961"/>
		<path d="M 194.8857 45.5457 L 194.8857 39.6221 L 194.0506 39.6221 L 194.0506 45.5457 L 194.8857 45.5457 ZM 195.0565 38.2072 C 195.0565 37.872 194.7827 37.6192 194.4624 37.6192 C 194.141 37.6192 193.8666 37.872 193.8666 38.2072 C 193.8666 38.5405 194.141 38.8057 194.4624 38.8057 C 194.7827 38.8057 195.0565 38.5405 195.0565 38.2072 Z" fill="#515961"/>
		<path d="M 200.1417 45.407 L 199.9809 44.6467 C 199.558 44.7626 198.9514 44.8661 198.4587 44.8661 C 197.623 44.8661 197.0374 44.4185 197.0374 43.3708 L 197.0374 41.8071 C 197.0374 40.7612 197.623 40.3114 198.4587 40.3114 C 198.9514 40.3114 199.558 40.4277 199.9809 40.5293 L 200.1417 39.7711 C 199.7515 39.6676 199.1101 39.5289 198.4463 39.5289 C 197.1753 39.5289 196.2018 40.3011 196.2018 41.8071 L 196.2018 43.3708 C 196.2018 44.8786 197.1753 45.6492 198.4463 45.6492 C 199.1101 45.6492 199.7515 45.5102 200.1417 45.407 Z" fill="#515961"/>
		<path d="M 204.492 42.0824 L 201.778 42.0824 L 201.778 41.6911 C 201.778 40.8625 202.3611 40.3114 203.1412 40.3114 C 203.931 40.3114 204.492 40.8625 204.492 41.6911 L 204.492 42.0824 ZM 205.3293 42.8183 L 205.3293 41.6911 C 205.3293 40.4149 204.3558 39.5289 203.1412 39.5289 C 201.9264 39.5289 200.9423 40.4149 200.9423 41.6911 L 200.9423 43.4518 C 200.9423 44.7626 201.9035 45.6492 203.1763 45.6492 C 203.8506 45.6492 204.5271 45.5102 204.9848 45.3734 L 204.8242 44.6136 C 204.298 44.7518 203.6447 44.8661 203.1763 44.8661 C 202.3611 44.8661 201.778 44.3134 201.778 43.4518 L 201.778 42.8183 L 205.3293 42.8183 Z" fill="#515961"/>
		<path d="M 210.0224 43.9585 C 210.0224 42.5546 208.9805 42.3826 207.9946 42.0247 C 207.572 41.8756 207.1702 41.6808 207.1702 41.14 C 207.1702 40.7487 207.4109 40.3114 208.2239 40.3114 C 208.6368 40.3114 209.164 40.4149 209.6225 40.5415 L 209.7938 39.7936 C 209.3127 39.6327 208.6835 39.5289 208.2239 39.5289 C 207.0563 39.5289 206.3221 40.2206 206.3221 41.1508 C 206.3221 43.313 209.187 42.4969 209.187 43.9801 C 209.187 44.4521 208.7396 44.8661 207.9268 44.8661 C 207.3882 44.8661 206.8726 44.7399 206.4025 44.6136 L 206.2433 45.3734 C 206.6788 45.5102 207.2625 45.6492 207.9268 45.6492 C 209.3931 45.6492 210.0224 44.7746 210.0224 43.9585 Z" fill="#515961"/>
		<path d="M 108.9561 31.894 L 108.9561 21.0476 L 103.9676 21.0476 L 103.9676 22.8818 L 106.5945 23.1149 L 106.5945 30.1918 C 105.2976 30.4939 103.7682 30.7603 102.0416 30.7603 C 98.8831 30.7603 96.3889 28.6225 96.3889 24.5191 L 96.3889 18.4429 C 96.3889 14.3046 98.8831 12.2019 102.0416 12.2019 C 104.2685 12.2019 106.2628 12.6021 108.0244 13.1354 L 108.4893 10.9995 C 106.1295 10.2994 104.3348 9.9309 102.0065 9.9309 C 97.4531 9.9309 93.9294 13.0023 93.9294 18.243 L 93.9294 24.7191 C 93.9294 29.9583 97.4531 33.0298 102.0065 33.0298 C 104.3348 33.0298 106.8271 32.5627 108.9561 31.894 Z" fill="#515961"/>
		<path d="M 151.5506 32.7629 L 151.5506 16.0984 C 151.5506 12.393 148.8568 9.857 145.5008 9.857 C 143.5048 9.857 141.6766 10.7573 140.5789 12.8268 C 139.4828 10.7573 137.6881 9.857 135.6935 9.857 C 132.3353 9.857 129.6105 12.393 129.6105 16.0984 L 129.6105 32.7629 L 132.0368 32.7629 L 132.0368 16.2668 C 132.0368 13.6622 133.566 12.1265 135.6935 12.1265 C 137.7874 12.1265 139.3501 13.6622 139.3501 16.2668 L 139.3501 32.7629 L 141.7778 32.7629 L 141.7778 16.2668 C 141.7778 13.6622 143.4068 12.1265 145.5008 12.1265 C 147.5947 12.1265 149.1223 13.6622 149.1223 16.2668 L 149.1223 32.7629 L 151.5506 32.7629 Z" fill="#515961"/>
		<path d="M 123.7169 16.7073 C 123.7169 18.91 122.4203 20.4456 120.1267 20.4456 L 115.8708 20.4456 L 115.8708 13.0689 L 120.1267 13.0689 C 122.4203 13.0689 123.7169 14.5047 123.7169 16.7073 ZM 127.0745 32.7629 L 122.3868 22.8818 C 125.1136 21.981 126.8087 19.5452 126.8087 16.7073 C 126.8087 13.1022 124.1152 10.2328 120.1267 10.2328 L 112.7803 10.2328 L 112.7803 32.7629 L 115.8708 32.7629 L 115.8708 23.1503 L 119.363 23.1503 L 123.7169 32.7629 L 127.0745 32.7629 Z" fill="#3967a9"/>
	</g>
</svg>