<?xml version="1.0" standalone="no"?>
<!-- Generator: Adobe Fireworks 10, Export SVG Extension by Aaron Beall (http://fireworks.abeall.com) . Version: 0.6.1  -->
<!DOCTYPE svg PUBLIC "-//W3C//DTD SVG 1.1//EN" "http://www.w3.org/Graphics/SVG/1.1/DTD/svg11.dtd">
<svg id="Untitled-Page%201" viewBox="0 0 978 211" style="background-color:#ffffff00" version="1.1"
	xmlns="http://www.w3.org/2000/svg" xmlns:xlink="http://www.w3.org/1999/xlink" xml:space="preserve"
	x="0px" y="0px" width="978px" height="211px"
>
	<g id="Layer%201">
		<g>
			<g>
				<path d="M 188.095 146.7817 C 230.4685 146.7817 279.0417 140.6659 322.4478 127.4158 C 314.1802 136.589 298.6786 151.8805 296.6119 162.0731 C 295.5776 166.15 293.5108 173.2853 291.4436 178.3805 C 281.1085 180.4195 260.4392 181.439 258.373 181.439 C 255.272 181.439 251.1384 181.439 234.6015 180.4195 C 184.9945 175.322 172.5928 167.1683 130.2199 167.1683 C 127.1194 167.1683 91.981 170.2268 89.9137 170.2268 C 83.7123 170.2268 60.9761 144.7439 50.6406 138.628 C 38.2389 130.4732 12.4017 118.2415 0 113.1451 C 55.8084 129.4549 131.2536 146.7817 188.095 146.7817 ZM 142.621 84.6043 C 136.4208 97.8561 137.4544 101.9317 137.4544 112.1245 C 137.4544 115.1841 138.4881 124.3561 139.5213 130.4732 C 112.6504 129.4549 87.8463 123.339 60.9761 119.261 L 60.9761 106.0098 C 63.0429 98.875 64.0766 91.7397 67.1764 84.6043 L 142.621 84.6043 ZM 293.5108 74.4104 C 290.411 82.5653 287.31 96.836 287.31 104.9902 C 287.31 108.0488 288.343 117.2219 289.3773 122.3184 C 269.7404 126.3952 250.1042 129.4549 225.3001 131.4927 C 223.234 122.3184 221.1667 103.9708 221.1667 101.9317 C 221.1667 98.875 223.234 83.5847 225.3001 74.4104 L 293.5108 74.4104 ZM 166.3913 50.9659 C 161.2242 62.1786 162.2585 65.2366 162.2585 75.4305 C 162.2585 83.5847 161.2242 89.7006 166.3913 101.9317 L 144.6883 101.9317 L 144.6883 96.836 C 146.7557 91.7397 148.8225 85.6232 150.8898 78.4878 L 95.082 78.4878 L 95.082 67.2756 C 96.1152 62.1786 98.1819 56.0622 99.2156 50.9659 L 166.3913 50.9659 ZM 283.1758 38.7342 C 278.0092 46.8884 278.0092 58.1012 279.0417 68.2951 L 240.6023 68.2951 C 237.332 57.9171 239.0205 48.36 241.836 38.7342 L 283.1758 38.7342 ZM 143.6553 33.6378 C 146.7557 34.6567 150.8898 33.6378 153.9902 33.6378 C 150.8898 35.6756 146.7557 39.7537 142.621 40.7732 C 136.4208 41.7921 126.0864 42.8122 122.9854 42.8122 L 118.8506 42.8122 L 118.8506 32.6183 C 121.9517 32.6183 126.0864 31.5988 129.1862 31.5988 C 131.2536 31.5988 138.4881 33.6378 143.6553 33.6378 ZM 281.1085 21.4055 C 284.2089 22.4256 290.411 22.4256 294.5445 22.4256 C 291.4436 24.4634 287.31 29.5604 284.2089 29.5604 C 275.9419 31.5988 266.64 30.5793 258.373 32.6183 L 258.373 20.3866 C 261.4729 20.3866 266.64 19.3677 268.7074 19.3677 C 271.8078 19.3677 275.9419 20.3866 281.1085 21.4055 Z" fill="#373e44"/>
				<path d="M 236.6688 211 C 192.2297 211 148.8225 194.6903 85.7796 194.6903 C 60.9761 194.6903 58.9088 193.672 27.9045 199.7878 C 60.9761 180.4195 96.1152 174.3037 129.1862 174.3037 C 178.7937 174.3037 201.5304 188.5732 257.3393 188.5732 C 285.2431 188.5732 328.6492 181.439 351.3866 171.2463 C 316.2481 199.7878 272.8403 211 236.6688 211 ZM 222.2003 65.2366 C 218.0662 76.4494 214.9652 89.7006 214.9652 100.9134 C 214.9652 103.9708 217.0325 121.3 220.1336 131.4927 C 173.6265 134.55 199.463 131.4927 145.722 131.4927 C 144.6883 129.4549 143.6553 126.3952 143.6553 124.3561 L 143.6553 108.0488 L 174.6596 108.0488 C 171.5591 98.875 168.4586 86.6421 168.4586 84.6043 L 168.4586 65.2366 L 222.2003 65.2366 ZM 239.7687 27.5214 C 236.6688 39.7537 231.5016 55.0433 235.6357 69.314 L 227.3676 69.314 C 228.4012 67.2756 229.4342 64.2177 230.4685 60.1402 L 170.5255 60.1402 L 170.5255 56.0622 C 171.5591 54.0238 172.5928 50.9659 174.6596 47.9085 L 174.6596 44.8506 L 156.057 44.8506 C 157.0913 39.7537 159.158 33.6378 161.2242 27.5214 L 239.7687 27.5214 ZM 232.5352 16.3092 C 230.4685 17.3287 227.3676 18.3476 225.3001 18.3476 C 212.8985 20.3866 200.4968 17.3287 188.095 21.4055 L 188.095 0 L 217.0325 0 C 226.3339 3.0585 233.5684 5.0963 250.1042 3.0585 C 244.9371 7.1353 238.7361 13.2518 232.5352 16.3092 Z" fill="#3967a9"/>
			</g>
			<path d="M 431.3547 197.6655 L 431.3547 179.5563 L 422.8955 179.5563 L 422.8955 182.6169 L 427.3478 183.008 L 427.3478 194.8174 C 425.152 195.3189 422.5511 195.7598 419.6217 195.7598 C 414.2536 195.7598 410.0148 192.2004 410.0148 185.3469 L 410.0148 175.2042 C 410.0148 168.3021 414.2536 164.7886 419.6217 164.7886 C 423.395 164.7886 426.7899 165.4632 429.7785 166.3452 L 430.5725 162.7832 C 426.5645 161.6204 423.5154 160.9983 419.5605 160.9983 C 411.8242 160.9983 405.8372 166.1247 405.8372 174.8722 L 405.8372 185.6776 C 405.8372 194.4264 411.8242 199.5515 419.5605 199.5515 C 423.5154 199.5515 427.7455 198.7706 431.3547 197.6655 Z" fill="#515961"/>
			<path d="M 451.8446 170.3586 C 450.6556 170.0883 449.3002 169.9676 448.2854 169.9676 C 442.245 169.9676 437.5573 174.0913 437.5573 180.5013 L 437.5573 199.1118 L 441.6758 199.1118 L 441.6758 180.5013 C 441.6758 176.3264 444.5035 173.758 448.3472 173.758 C 449.1287 173.758 450.2073 173.8708 451.0493 174.0309 L 451.8446 170.3586 Z" fill="#515961"/>
			<path d="M 478.2579 189.1398 L 478.2579 170.4702 L 474.1402 170.4702 L 474.1402 189.1398 C 474.1402 193.1428 471.2632 195.8202 467.4713 195.8202 C 463.5755 195.8202 460.7519 193.1428 460.7519 189.1398 L 460.7519 170.4702 L 456.6341 170.4702 L 456.6341 189.1398 C 456.6341 195.2663 461.4316 199.6131 467.4713 199.6131 C 473.3994 199.6131 478.2579 195.2663 478.2579 189.1398 Z" fill="#515961"/>
			<path d="M 501.692 188.8065 C 501.692 193.3712 498.8137 195.7598 495.0244 195.7598 C 492.6024 195.7598 489.8347 194.6547 488.3024 193.8148 L 488.3024 180.5591 C 488.3024 176.5481 491.1288 173.7081 495.0244 173.7081 C 498.7539 173.7081 501.692 176.5481 501.692 180.5591 L 501.692 188.8065 ZM 505.8097 188.8065 L 505.8097 180.5591 C 505.8097 174.4233 500.9511 169.9177 495.0244 169.9177 C 489.0458 169.9177 484.1846 174.4233 484.1846 180.5591 L 484.1846 209.1415 L 488.3024 209.1415 L 488.3024 197.7679 C 489.7162 198.4976 492.1449 199.5515 495.0244 199.5515 C 501.0708 199.5515 505.8097 195.5393 505.8097 188.8065 Z" fill="#515961"/>
			<path d="M 529.3461 187.7434 C 529.3461 193.4814 526.1248 195.8202 522.007 195.8202 C 517.9397 195.8202 514.7263 193.4814 514.7263 187.7434 L 514.7263 181.836 C 514.7263 176.0967 517.9996 173.758 522.007 173.758 C 526.1846 173.758 529.3461 176.0967 529.3461 181.836 L 529.3461 187.7434 ZM 533.5251 187.9048 L 533.5251 181.6641 C 533.5251 174.321 528.6745 169.9676 522.007 169.9676 C 515.4593 169.9676 510.5992 174.3721 510.5992 181.6641 L 510.5992 187.9048 C 510.5992 195.2663 515.4593 199.6131 522.007 199.6131 C 528.6745 199.6131 533.5251 195.2663 533.5251 187.9048 Z" fill="#515961"/>
			<path d="M 557.4592 172.3142 C 557.4592 175.9865 555.2514 178.5536 551.3584 178.5536 L 544.1296 178.5536 L 544.1296 166.235 L 551.3584 166.235 C 555.2514 166.235 557.4592 168.6315 557.4592 172.3142 ZM 563.1624 199.1118 L 555.2009 182.6169 C 559.8268 181.1129 562.7037 177.039 562.7037 172.3142 C 562.7037 166.2953 558.1389 161.4996 551.3584 161.4996 L 538.8839 161.4996 L 538.8839 199.1118 L 544.1296 199.1118 L 544.1296 183.0605 L 550.0577 183.0605 L 557.4592 199.1118 L 563.1624 199.1118 Z" fill="#3967a9"/>
			<path d="M 583.7621 187.5137 C 583.7621 192.7596 580.884 194.9265 577.2131 194.9265 C 573.4916 194.9265 570.6667 192.7596 570.6667 187.5137 L 570.6667 181.7849 C 570.6667 176.5481 573.5422 174.3721 577.2131 174.3721 C 580.9451 174.3721 583.7621 176.5481 583.7621 181.7849 L 583.7621 187.5137 ZM 589.0172 187.6856 L 589.0172 181.6142 C 589.0172 174.2016 583.9936 169.6959 577.2131 169.6959 C 570.3913 169.6959 565.4183 174.2016 565.4183 181.6142 L 565.4183 187.6856 C 565.4183 195.0983 570.3913 199.6131 577.2131 199.6131 C 583.9936 199.6131 589.0172 195.1482 589.0172 187.6856 Z" fill="#3967a9"/>
			<path d="M 631.7488 199.1118 L 631.7488 180.3293 C 631.7488 174.0913 626.958 169.6959 621.0327 169.6959 C 617.8604 169.6959 614.9305 171.028 612.95 174.3721 C 610.9683 171.028 607.9875 169.6959 604.713 169.6959 C 598.8369 169.6959 594.1006 174.0913 594.1006 180.3293 L 594.1006 199.1118 L 599.3477 199.1118 L 599.3477 180.8321 C 599.3477 176.6584 601.6645 174.3721 604.7648 174.3721 C 607.9265 174.3721 610.2966 176.7096 610.2966 180.8321 L 610.2966 199.1118 L 615.5529 199.1118 L 615.5529 180.8321 C 615.5529 176.6584 617.9828 174.3721 621.0832 174.3721 C 624.2448 174.3721 626.5031 176.7096 626.5031 180.8321 L 626.5031 199.1118 L 631.7488 199.1118 Z" fill="#3967a9"/>
			<path d="M 653.9432 181.836 L 642.0858 181.836 L 642.0858 180.391 C 642.0858 176.8186 644.5677 174.3721 648.0139 174.3721 C 651.5132 174.3721 653.9432 176.8186 653.9432 180.391 L 653.9432 181.836 ZM 659.189 186.1868 L 659.189 180.391 C 659.189 174.0913 654.1639 169.6959 648.0139 169.6959 C 641.9156 169.6959 636.831 174.0913 636.831 180.391 L 636.831 188.6857 C 636.831 195.2086 641.744 199.6131 648.3477 199.6131 C 651.5132 199.6131 654.8969 198.9399 657.6115 198.1065 L 656.598 193.593 C 653.4936 194.3673 650.4452 194.9265 648.3477 194.9265 C 644.6183 194.9265 642.0858 192.4787 642.0858 188.6857 L 642.0858 186.1868 L 659.189 186.1868 Z" fill="#3967a9"/>
			<path d="M 686.355 188.8577 L 686.355 170.1881 L 681.0974 170.1881 L 681.0974 188.8577 C 681.0974 192.4787 678.5636 194.9265 675.1693 194.9265 C 671.6727 194.9265 669.2427 192.4787 669.2427 188.8577 L 669.2427 170.1881 L 663.9877 170.1881 L 663.9877 188.8577 C 663.9877 195.1482 669.0179 199.6131 675.1693 199.6131 C 681.3208 199.6131 686.355 195.1482 686.355 188.8577 Z" fill="#3967a9"/>
			<path d="M 729.3699 199.1118 L 725.1909 161.4996 L 719.376 161.4996 L 711.5806 185.3469 L 710.5725 189.4706 L 709.5536 185.3469 L 701.8168 161.4996 L 695.95 161.4996 L 691.7124 199.1118 L 695.7185 199.1118 L 698.8295 170.0279 L 699.1633 165.9029 L 700.2393 170.0279 L 707.8565 193.2622 L 713.2258 193.2622 L 720.8483 170.0279 L 721.8658 165.9029 L 722.2023 170.0279 L 725.2521 199.1118 L 729.3699 199.1118 Z" fill="#515961"/>
			<path d="M 756.6358 189.1398 L 756.6358 170.4702 L 752.5114 170.4702 L 752.5114 189.1398 C 752.5114 193.1428 749.6317 195.8202 745.8504 195.8202 C 741.9574 195.8202 739.1297 193.1428 739.1297 189.1398 L 739.1297 170.4702 L 735.012 170.4702 L 735.012 189.1398 C 735.012 195.2663 739.8027 199.6131 745.8504 199.6131 C 751.7797 199.6131 756.6358 195.2663 756.6358 189.1398 Z" fill="#515961"/>
			<path d="M 767.5276 199.1118 L 767.5276 158.9902 L 763.4084 159.7134 L 763.4084 199.1118 L 767.5276 199.1118 Z" fill="#515961"/>
			<path d="M 787.6882 173.758 L 787.6882 170.419 L 781.586 170.419 L 781.586 161.1086 L 777.4602 162.0613 L 777.4602 170.419 L 772.6096 170.419 L 773.4541 173.758 L 777.4602 173.758 L 777.4602 199.1118 L 781.586 199.1118 L 781.586 173.758 L 787.6882 173.758 Z" fill="#515961"/>
			<path d="M 797.2166 199.1118 L 797.2166 170.419 L 793.0975 170.419 L 793.0975 199.1118 L 797.2166 199.1118 ZM 798.0586 163.5654 C 798.0586 161.9419 796.7086 160.7174 795.1298 160.7174 C 793.5458 160.7174 792.1932 161.9419 792.1932 163.5654 C 792.1932 165.1797 793.5458 166.4646 795.1298 166.4646 C 796.7086 166.4646 798.0586 165.1797 798.0586 163.5654 Z" fill="#515961"/>
			<path d="M 821.4846 191.4235 C 821.4846 184.6237 816.3506 183.7903 811.4894 182.0566 C 809.4092 181.3347 807.4341 180.391 807.4341 177.7713 C 807.4341 175.8762 808.6125 173.758 812.6199 173.758 C 814.6536 173.758 817.2538 174.2593 819.5122 174.8722 L 820.3569 171.2498 C 817.9879 170.4702 814.877 169.9676 812.6199 169.9676 C 806.8661 169.9676 803.2457 173.3182 803.2457 177.8239 C 803.2457 188.2972 817.3654 184.3441 817.3654 191.5285 C 817.3654 193.8148 815.1616 195.8202 811.1543 195.8202 C 808.5008 195.8202 805.9591 195.2086 803.6421 194.597 L 802.8481 198.2771 C 805.004 198.9399 807.881 199.6131 811.1543 199.6131 C 818.3829 199.6131 821.4846 195.3766 821.4846 191.4235 Z" fill="#515961"/>
			<path d="M 843.7896 182.336 L 830.4106 182.336 L 830.4106 180.4409 C 830.4106 176.4274 833.2875 173.758 837.1193 173.758 C 841.0242 173.758 843.7896 176.4274 843.7896 180.4409 L 843.7896 182.336 ZM 847.9085 185.9007 L 847.9085 180.4409 C 847.9085 174.2593 843.1097 169.9676 837.1193 169.9676 C 831.142 169.9676 826.2835 174.2593 826.2835 180.4409 L 826.2835 188.9693 C 826.2835 195.3189 831.0291 199.6131 837.2934 199.6131 C 840.6306 199.6131 843.9624 198.9399 846.2101 198.2771 L 845.4268 194.597 C 842.8278 195.2663 839.6118 195.8202 837.2934 195.8202 C 833.2875 195.8202 830.4106 193.1428 830.4106 188.9693 L 830.4106 185.9007 L 847.9085 185.9007 Z" fill="#515961"/>
			<path d="M 867.5414 170.3586 C 866.363 170.0883 865.0023 169.9676 863.9835 169.9676 C 857.9437 169.9676 853.2581 174.0913 853.2581 180.5013 L 853.2581 199.1118 L 857.3852 199.1118 L 857.3852 180.5013 C 857.3852 176.3264 860.2034 173.758 864.0461 173.758 C 864.8375 173.758 865.9067 173.8708 866.7592 174.0309 L 867.5414 170.3586 Z" fill="#515961"/>
			<path d="M 894.4137 170.419 L 890.2358 170.419 L 882.5002 195.1482 L 874.8206 170.419 L 870.6457 170.419 L 879.7326 199.1118 L 885.2123 199.1118 L 894.4137 170.419 Z" fill="#515961"/>
			<path d="M 903.3914 199.1118 L 903.3914 170.419 L 899.2747 170.419 L 899.2747 199.1118 L 903.3914 199.1118 ZM 904.2332 163.5654 C 904.2332 161.9419 902.8834 160.7174 901.3046 160.7174 C 899.7203 160.7174 898.3678 161.9419 898.3678 163.5654 C 898.3678 165.1797 899.7203 166.4646 901.3046 166.4646 C 902.8834 166.4646 904.2332 165.1797 904.2332 163.5654 Z" fill="#515961"/>
			<path d="M 929.2979 198.4398 L 928.5051 194.7572 C 926.4211 195.3189 923.431 195.8202 921.0023 195.8202 C 916.8833 195.8202 913.997 193.6521 913.997 188.5768 L 913.997 181.0027 C 913.997 175.9366 916.8833 173.758 921.0023 173.758 C 923.431 173.758 926.4211 174.321 928.5051 174.8131 L 929.2979 171.1408 C 927.3747 170.6395 924.2131 169.9676 920.9412 169.9676 C 914.6768 169.9676 909.878 173.7081 909.878 181.0027 L 909.878 188.5768 C 909.878 195.8806 914.6768 199.6131 920.9412 199.6131 C 924.2131 199.6131 927.3747 198.9399 929.2979 198.4398 Z" fill="#515961"/>
			<path d="M 950.7407 182.336 L 937.3633 182.336 L 937.3633 180.4409 C 937.3633 176.4274 940.2375 173.758 944.0827 173.758 C 947.9757 173.758 950.7407 176.4274 950.7407 180.4409 L 950.7407 182.336 ZM 954.868 185.9007 L 954.868 180.4409 C 954.868 174.2593 950.0692 169.9676 944.0827 169.9676 C 938.0947 169.9676 933.244 174.2593 933.244 180.4409 L 933.244 188.9693 C 933.244 195.3189 937.9818 199.6131 944.2556 199.6131 C 947.5795 199.6131 950.9136 198.9399 953.1694 198.2771 L 952.3781 194.597 C 949.7845 195.2663 946.5644 195.8202 944.2556 195.8202 C 940.2375 195.8202 937.3633 193.1428 937.3633 188.9693 L 937.3633 185.9007 L 954.868 185.9007 Z" fill="#515961"/>
			<path d="M 978 191.4235 C 978 184.6237 972.8648 183.7903 968.0048 182.0566 C 965.922 181.3347 963.9415 180.391 963.9415 177.7713 C 963.9415 175.8762 965.1277 173.758 969.1353 173.758 C 971.1702 173.758 973.7692 174.2593 976.029 174.8722 L 976.8735 171.2498 C 974.5021 170.4702 971.4005 169.9676 969.1353 169.9676 C 963.3801 169.9676 959.7611 173.3182 959.7611 177.8239 C 959.7611 188.2972 973.8822 184.3441 973.8822 191.5285 C 973.8822 193.8148 971.6769 195.8202 967.6708 195.8202 C 965.0162 195.8202 962.4745 195.2086 960.1575 194.597 L 959.3727 198.2771 C 961.5195 198.9399 964.3964 199.6131 967.6708 199.6131 C 974.8984 199.6131 978 195.3766 978 191.4235 Z" fill="#515961"/>
			<path d="M 479.8434 132.9853 L 479.8434 80.4473 L 455.2549 80.4473 L 455.2549 89.3319 L 468.2028 90.4613 L 468.2028 124.7405 C 461.8106 126.2039 454.2719 127.494 445.7617 127.494 C 430.1935 127.494 417.8993 117.1388 417.8993 97.2631 L 417.8993 67.8307 C 417.8993 47.7857 430.1935 37.6004 445.7617 37.6004 C 456.7378 37.6004 466.5682 39.5388 475.2507 42.1224 L 477.5424 31.7764 C 465.9112 28.385 457.0651 26.6001 445.5887 26.6001 C 423.145 26.6001 405.7766 41.4773 405.7766 66.8628 L 405.7766 98.2316 C 405.7766 123.6092 423.145 138.4871 445.5887 138.4871 C 457.0651 138.4871 469.3493 136.2245 479.8434 132.9853 Z" fill="#515961"/>
			<path d="M 689.7917 137.1944 L 689.7917 56.4747 C 689.7917 38.5263 676.514 26.2425 659.9723 26.2425 C 650.134 26.2425 641.123 30.603 635.7122 40.6275 C 630.3096 30.603 621.4636 26.2425 611.6318 26.2425 C 595.0795 26.2425 581.6487 38.5263 581.6487 56.4747 L 581.6487 137.1944 L 593.6085 137.1944 L 593.6085 57.2904 C 593.6085 44.6738 601.1459 37.2355 611.6318 37.2355 C 621.9531 37.2355 629.6553 44.6738 629.6553 57.2904 L 629.6553 137.1944 L 641.6217 137.1944 L 641.6217 57.2904 C 641.6217 44.6738 649.6512 37.2355 659.9723 37.2355 C 670.2934 37.2355 677.8228 44.6738 677.8228 57.2904 L 677.8228 137.1944 L 689.7917 137.1944 Z" fill="#515961"/>
			<path d="M 552.5993 59.4238 C 552.5993 70.0934 546.2084 77.5317 534.9031 77.5317 L 513.9257 77.5317 L 513.9257 41.8002 L 534.9031 41.8002 C 546.2084 41.8002 552.5993 48.7549 552.5993 59.4238 ZM 569.149 137.1944 L 546.0436 89.3319 C 559.4836 84.9687 567.8389 73.1704 567.8389 59.4238 C 567.8389 41.9616 554.5625 28.0628 534.9031 28.0628 L 498.6927 28.0628 L 498.6927 137.1944 L 513.9257 137.1944 L 513.9257 90.6326 L 531.1391 90.6326 L 552.5993 137.1944 L 569.149 137.1944 Z" fill="#3967a9"/>
		</g>
	</g>
</svg>