<?xml version="1.0" standalone="no"?>
<!-- Generator: Adobe Fireworks 10, Export SVG Extension by Aaron Beall (http://fireworks.abeall.com) . Version: 0.6.1  -->
<!DOCTYPE svg PUBLIC "-//W3C//DTD SVG 1.1//EN" "http://www.w3.org/Graphics/SVG/1.1/DTD/svg11.dtd">
<svg id="Untitled-Page%201" viewBox="0 0 240 240" style="background-color:#ffffff00" version="1.1"
	xmlns="http://www.w3.org/2000/svg" xmlns:xlink="http://www.w3.org/1999/xlink" xml:space="preserve"
	x="0px" y="0px" width="240px" height="240px"
>
	<path id="usr" d="M 119.9988 16.3069 C 90.3137 16.3069 66.2488 40.4154 66.2488 70.1529 C 66.2488 99.8915 90.3137 124 119.9988 124 C 149.6851 124 173.75 99.8915 173.75 70.1529 C 173.75 40.4154 149.6851 16.3069 119.9988 16.3069 L 119.9988 16.3069 ZM 119.9988 139.3839 C 81.6846 139.3839 50.6238 108.3887 50.6238 70.1529 C 50.6238 31.9182 81.6846 0.923 119.9988 0.923 C 158.3142 0.923 189.3738 31.9182 189.3738 70.1529 C 189.3738 108.3887 158.3142 139.3839 119.9988 139.3839 L 119.9988 139.3839 ZM 185.2637 170.1529 L 54.7339 170.1529 C 39.8645 170.1529 27.8125 182.2071 27.8125 197.0759 C 27.8125 211.9457 39.8645 224 54.7339 224 L 185.2637 224 C 200.1331 224 212.1863 211.9457 212.1863 197.0759 C 212.1863 182.2071 200.1331 170.1529 185.2637 170.1529 L 185.2637 170.1529 ZM 185.5042 239.3839 L 54.4946 239.3839 C 31.1292 239.3839 12.1863 220.4418 12.1863 197.0759 C 12.1863 173.711 31.1292 154.769 54.4946 154.769 L 185.5042 154.769 C 208.8708 154.769 227.8113 173.711 227.8113 197.0759 C 227.8113 220.4418 208.8708 239.3839 185.5042 239.3839 L 185.5042 239.3839 Z" fill="#007bff"/>
</svg>